<svg width="211" height="242" viewBox="0 0 211 242" fill="none" xmlns="http://www.w3.org/2000/svg">
<rect x="11" y="19" width="200" height="200" rx="100" fill="#2443DE"/>
<mask id="mask0_69_1083" style="mask-type:alpha" maskUnits="userSpaceOnUse" x="-12" y="-4" width="246" height="246">
<rect x="181.711" y="-3.47461" width="200" height="200" rx="100" transform="rotate(75 181.711 -3.47461)" fill="#2443DE"/>
</mask>
<g mask="url(#mask0_69_1083)">
<path fill-rule="evenodd" clip-rule="evenodd" d="M77.3414 0.408854L80.9871 9.32403C84.2796 16.9207 91.5712 34.7511 94.9912 52.2057C98.4112 69.6603 98.6661 89.3761 100.913 107.145C103.161 124.914 108.107 143.373 123.254 157.685C138.402 171.997 164.458 184.799 174.914 200.369C185.371 215.938 180.935 236.911 178.363 246.078L176.145 256.565L70.6577 284.83L68.1846 275.601C66.0649 267.69 72.7774 273.705 68.1846 256.565C63.5919 239.424 52.5927 196.14 48 179C37.8179 141 38.0927 143.14 33.5 126C28.9073 108.86 13.5927 55.6404 9 38.5C4.40726 21.3596 4.59279 38.2728 2.47307 30.3618L4.88162e-05 21.1324L77.3414 0.408854Z" fill="#0628CE"/>
</g>
</svg>
