<svg width="200" height="200" viewBox="0 0 200 200" fill="none" xmlns="http://www.w3.org/2000/svg">
<rect width="200" height="200" rx="100" fill="#FAAB3C"/>
<mask id="mask0_69_1085" style="mask-type:alpha" maskUnits="userSpaceOnUse" x="0" y="0" width="200" height="200">
<rect x="200" y="200" width="200" height="200" rx="100" transform="rotate(-180 200 200)" fill="#2443DE"/>
</mask>
<g mask="url(#mask0_69_1085)">
<path fill-rule="evenodd" clip-rule="evenodd" d="M223.262 98.1819L213.707 99.3961C205.517 100.61 186.407 103.038 168.662 101.824C150.917 100.61 130.695 98.9293 112.95 96.5011C95.205 94.0728 76.095 94.0728 58.35 105C40.605 115.927 22.6067 134.606 4.86166 140.677C-12.8833 146.747 -31.9933 137.034 -40.1833 132.178L-49.7383 127.321L-49.7383 18.1123L-40.1833 18.1123C-31.9933 18.1123 -39.5411 23.0391 -21.7961 23.0391C-4.05106 23.0391 40.605 23.6175 58.35 23.6175C97.6905 23.6175 101.255 -9 119 -8.99999C136.745 -8.99999 186.411 22.3105 204.156 22.3105C221.901 22.3105 205.517 18.1123 213.707 18.1123L223.262 18.1123L223.262 98.1819Z" fill="#FD9300"/>
</g>
</svg>
