<svg width="24" height="27" viewBox="0 0 24 27" fill="none" xmlns="http://www.w3.org/2000/svg">
<path d="M10.8153 12.8103L0.175293 24.1103C0.505293 25.3403 1.62529 26.2403 2.95529 26.2403C3.48529 26.2403 3.98529 26.1003 4.41529 25.8403L4.44529 25.8203L16.4253 18.9103L10.8153 12.8003V12.8103Z" fill="#EA4335"/>
<path d="M21.595 10.8902H21.585L16.415 7.88025L10.585 13.0702L16.435 18.9202L21.585 15.9502C22.485 15.4602 23.095 14.5102 23.095 13.4202C23.095 12.3302 22.495 11.3802 21.595 10.9002V10.8902Z" fill="#FBBC04"/>
<path d="M0.175195 2.67029C0.115195 2.91029 0.0751953 3.15029 0.0751953 3.41029V23.3803C0.0751953 23.6403 0.105195 23.8803 0.175195 24.1203L11.1852 13.1103L0.175195 2.67029Z" fill="#4285F4"/>
<path d="M10.8953 13.3903L16.4053 7.88027L4.43529 0.940273C4.00529 0.680273 3.49529 0.530273 2.94529 0.530273C1.62529 0.530273 0.495293 1.44027 0.175293 2.66027L10.9053 13.3803L10.8953 13.3903Z" fill="#34A853"/>
</svg>
