<svg width="34" height="30" viewBox="0 0 34 30" fill="none" xmlns="http://www.w3.org/2000/svg">
<path d="M17 29.8753C16.6112 29.8753 16.2153 29.8059 15.8125 29.667C15.4098 29.5281 15.0556 29.3059 14.75 29.0003L11.875 26.3753C8.9306 23.6809 6.27087 21.0073 3.89587 18.3545C1.52087 15.7017 0.333374 12.7781 0.333374 9.58366C0.333374 6.97255 1.20837 4.79199 2.95837 3.04199C4.70837 1.29199 6.88893 0.416992 9.50004 0.416992C10.9723 0.416992 12.3612 0.729492 13.6667 1.35449C14.9723 1.97949 16.0834 2.83366 17 3.91699C17.9167 2.83366 19.0278 1.97949 20.3334 1.35449C21.6389 0.729492 23.0278 0.416992 24.5 0.416992C27.1112 0.416992 29.2917 1.29199 31.0417 3.04199C32.7917 4.79199 33.6667 6.97255 33.6667 9.58366C33.6667 12.7781 32.4862 15.7087 30.125 18.3753C27.7639 21.042 25.0834 23.7225 22.0834 26.417L19.25 29.0003C18.9445 29.3059 18.5903 29.5281 18.1875 29.667C17.7848 29.8059 17.3889 29.8753 17 29.8753Z" fill="#132374"/>
</svg>
