<svg width="40" height="40" viewBox="0 0 40 40" fill="none" xmlns="http://www.w3.org/2000/svg">
<mask id="mask0_69_1171" style="mask-type:alpha" maskUnits="userSpaceOnUse" x="0" y="0" width="40" height="40">
<rect width="40" height="40" fill="#D9D9D9"/>
</mask>
<g mask="url(#mask0_69_1171)">
<path d="M20 19.8749L17.1667 22.0416C17 22.1805 16.8334 22.1874 16.6667 22.0624C16.5 21.9374 16.4445 21.7777 16.5 21.5833L17.5834 18.0833L14.6667 15.7499C14.5278 15.611 14.4861 15.4513 14.5417 15.2708C14.5972 15.0902 14.7222 14.9999 14.9167 14.9999H18.5L19.5834 11.5833C19.6389 11.3888 19.7778 11.2916 20 11.2916C20.2222 11.2916 20.3611 11.3888 20.4167 11.5833L21.5 14.9999H25.0417C25.2361 14.9999 25.3681 15.0902 25.4375 15.2708C25.507 15.4513 25.4722 15.611 25.3334 15.7499L22.375 18.0833L23.4584 21.5833C23.5139 21.7777 23.4584 21.9374 23.2917 22.0624C23.125 22.1874 22.9584 22.1805 22.7917 22.0416L20 19.8749ZM20 34.9999L12.2084 37.5833C11.6528 37.7777 11.1459 37.7083 10.6875 37.3749C10.2292 37.0416 10 36.5971 10 36.0416V25.4583C8.94446 24.2916 8.12502 22.9583 7.54169 21.4583C6.95835 19.9583 6.66669 18.361 6.66669 16.6666C6.66669 12.9444 7.95835 9.79159 10.5417 7.20825C13.125 4.62492 16.2778 3.33325 20 3.33325C23.7222 3.33325 26.875 4.62492 29.4584 7.20825C32.0417 9.79159 33.3334 12.9444 33.3334 16.6666C33.3334 18.361 33.0417 19.9583 32.4584 21.4583C31.875 22.9583 31.0556 24.2916 30 25.4583V36.0416C30 36.5971 29.7709 37.0416 29.3125 37.3749C28.8542 37.7083 28.3472 37.7777 27.7917 37.5833L20 34.9999ZM20 26.6666C22.7778 26.6666 25.1389 25.6944 27.0834 23.7499C29.0278 21.8055 30 19.4444 30 16.6666C30 13.8888 29.0278 11.5277 27.0834 9.58325C25.1389 7.63881 22.7778 6.66659 20 6.66659C17.2222 6.66659 14.8611 7.63881 12.9167 9.58325C10.9722 11.5277 10 13.8888 10 16.6666C10 19.4444 10.9722 21.8055 12.9167 23.7499C14.8611 25.6944 17.2222 26.6666 20 26.6666Z" fill="#132374"/>
</g>
</svg>
