<svg width="40" height="40" viewBox="0 0 40 40" fill="none" xmlns="http://www.w3.org/2000/svg">
<mask id="mask0_71_1257" style="mask-type:alpha" maskUnits="userSpaceOnUse" x="0" y="0" width="40" height="40">
<rect width="40" height="40" fill="#D9D9D9"/>
</mask>
<g mask="url(#mask0_71_1257)">
<path d="M20.0417 35C19.5695 35 19.1736 34.8403 18.8542 34.5208C18.5347 34.2014 18.375 33.8056 18.375 33.3333V31.4167C17.125 31.1389 16.0278 30.6528 15.0833 29.9583C14.1389 29.2639 13.375 28.2917 12.7917 27.0417C12.5972 26.6528 12.5903 26.2431 12.7708 25.8125C12.9514 25.3819 13.2778 25.0694 13.75 24.875C14.1389 24.7083 14.5417 24.7153 14.9583 24.8958C15.375 25.0764 15.6945 25.375 15.9167 25.7917C16.3889 26.625 16.9861 27.2569 17.7083 27.6875C18.4306 28.1181 19.3195 28.3333 20.375 28.3333C21.5139 28.3333 22.4792 28.0764 23.2708 27.5625C24.0625 27.0486 24.4583 26.25 24.4583 25.1667C24.4583 24.1944 24.1528 23.4236 23.5417 22.8542C22.9306 22.2847 21.5139 21.6389 19.2917 20.9167C16.9028 20.1667 15.2639 19.2708 14.375 18.2292C13.4861 17.1875 13.0417 15.9167 13.0417 14.4167C13.0417 12.6111 13.625 11.2083 14.7917 10.2083C15.9583 9.20833 17.1528 8.63889 18.375 8.5V6.66667C18.375 6.19444 18.5347 5.79861 18.8542 5.47917C19.1736 5.15972 19.5695 5 20.0417 5C20.5139 5 20.9097 5.15972 21.2292 5.47917C21.5486 5.79861 21.7083 6.19444 21.7083 6.66667V8.5C22.7639 8.66667 23.6806 9.00694 24.4583 9.52083C25.2361 10.0347 25.875 10.6667 26.375 11.4167C26.625 11.7778 26.6736 12.1806 26.5208 12.625C26.3681 13.0694 26.0556 13.3889 25.5833 13.5833C25.1945 13.75 24.7917 13.7569 24.375 13.6042C23.9583 13.4514 23.5695 13.1806 23.2083 12.7917C22.8472 12.4028 22.4236 12.1042 21.9375 11.8958C21.4514 11.6875 20.8472 11.5833 20.125 11.5833C18.9028 11.5833 17.9722 11.8542 17.3333 12.3958C16.6945 12.9375 16.375 13.6111 16.375 14.4167C16.375 15.3333 16.7917 16.0556 17.625 16.5833C18.4583 17.1111 19.9028 17.6667 21.9583 18.25C23.875 18.8056 25.3264 19.6875 26.3125 20.8958C27.2986 22.1042 27.7917 23.5 27.7917 25.0833C27.7917 27.0556 27.2083 28.5556 26.0417 29.5833C24.875 30.6111 23.4306 31.25 21.7083 31.5V33.3333C21.7083 33.8056 21.5486 34.2014 21.2292 34.5208C20.9097 34.8403 20.5139 35 20.0417 35Z" fill="#132374"/>
</g>
</svg>
