<svg width="528" height="466" viewBox="0 0 528 466" fill="none" xmlns="http://www.w3.org/2000/svg">
<g clip-path="url(#clip0_539_3467)" filter="url(#filter0_d_539_3467)">
<path d="M147.757 131.547C87.335 166.35 11.439 163.485 8.7217 255.203C6.83434 318.971 54.9554 354.898 108.324 377.694C159.336 399.499 218.205 423.057 268.83 393.408C303.123 373.33 315.331 344.069 359.222 338.675C386.957 335.262 408.093 352.06 436.791 337.658C560.661 275.522 491.337 118.563 412.537 58.7699C367.628 24.6904 284.343 -13.7128 225.835 4.8396C157.609 26.484 201.755 100.399 147.757 131.547Z" fill="#FAAB3C"/>
<path opacity="0.9" d="M147.757 131.547C87.335 166.35 11.439 163.485 8.7217 255.203C6.83434 318.971 54.9554 354.898 108.324 377.694C159.336 399.499 218.205 423.057 268.83 393.408C303.123 373.33 315.331 344.069 359.222 338.675C386.957 335.262 408.093 352.06 436.791 337.658C560.661 275.522 491.337 118.563 412.537 58.7699C367.628 24.6904 284.343 -13.7128 225.835 4.8396C157.609 26.484 201.755 100.399 147.757 131.547Z" fill="#FFE8C4"/>
<path d="M264.468 457.717C407.803 457.717 524 450.933 524 442.565C524 434.197 407.803 427.413 264.468 427.413C121.132 427.413 4.93555 434.197 4.93555 442.565C4.93555 450.933 121.132 457.717 264.468 457.717Z" fill="white"/>
<path d="M453.856 124.225H342.408C338.075 124.225 333.919 125.942 330.851 129.001C327.782 132.059 326.051 136.21 326.037 140.542V200.857C326.051 205.183 327.777 209.327 330.837 212.384C333.896 215.442 338.042 217.164 342.367 217.174H353.651L349.301 234.937C355.672 234.356 361.859 232.484 367.483 229.434C373.107 226.385 378.052 222.223 382.015 217.201H453.856C458.181 217.19 462.327 215.468 465.386 212.411C468.446 209.354 470.172 205.21 470.186 200.884V140.542C470.172 136.217 468.446 132.072 465.386 129.015C462.327 125.958 458.181 124.236 453.856 124.225Z" fill="#082BDA"/>
<path opacity="0.3" d="M453.856 124.225H342.408C338.075 124.225 333.919 125.942 330.851 129.001C327.782 132.059 326.051 136.21 326.037 140.542V200.857C326.051 205.183 327.777 209.327 330.837 212.384C333.896 215.442 338.042 217.164 342.367 217.174H353.651L349.301 234.937C355.672 234.356 361.859 232.484 367.483 229.434C373.107 226.385 378.052 222.223 382.015 217.201H453.856C458.181 217.19 462.327 215.468 465.386 212.411C468.446 209.354 470.172 205.21 470.186 200.884V140.542C470.172 136.217 468.446 132.072 465.386 129.015C462.327 125.958 458.181 124.236 453.856 124.225Z" fill="black"/>
<path d="M440.725 184.486C448.339 184.486 454.512 178.314 454.512 170.699C454.512 163.085 448.339 156.912 440.725 156.912C433.11 156.912 426.938 163.085 426.938 170.699C426.938 178.314 433.11 184.486 440.725 184.486Z" fill="#082BDA"/>
<path d="M398.135 184.486C405.749 184.486 411.922 178.314 411.922 170.699C411.922 163.085 405.749 156.912 398.135 156.912C390.52 156.912 384.348 163.085 384.348 170.699C384.348 178.314 390.52 184.486 398.135 184.486Z" fill="#082BDA"/>
<path d="M355.559 184.486C363.173 184.486 369.346 178.314 369.346 170.699C369.346 163.085 363.173 156.912 355.559 156.912C347.944 156.912 341.771 163.085 341.771 170.699C341.771 178.314 347.944 184.486 355.559 184.486Z" fill="#082BDA"/>
<g opacity="0.1">
<path d="M440.732 184.487C448.347 184.487 454.52 178.314 454.52 170.7C454.52 163.085 448.347 156.913 440.732 156.913C433.118 156.913 426.945 163.085 426.945 170.7C426.945 178.314 433.118 184.487 440.732 184.487Z" fill="#FAFAFA"/>
<path d="M398.137 184.487C405.751 184.487 411.924 178.314 411.924 170.7C411.924 163.085 405.751 156.913 398.137 156.913C390.522 156.913 384.35 163.085 384.35 170.7C384.35 178.314 390.522 184.487 398.137 184.487Z" fill="#FAFAFA"/>
<path d="M355.559 184.487C363.173 184.487 369.346 178.314 369.346 170.7C369.346 163.085 363.173 156.913 355.559 156.913C347.944 156.913 341.771 163.085 341.771 170.7C341.771 178.314 347.944 184.487 355.559 184.487Z" fill="#FAFAFA"/>
</g>
<path d="M180.579 37.6208H292.04C296.367 37.635 300.512 39.36 303.572 42.4195C306.631 45.479 308.356 49.6245 308.37 53.9512V114.253C308.342 118.57 306.611 122.702 303.553 125.75C300.495 128.798 296.358 130.516 292.04 130.53H280.756L285.147 148.252C278.774 147.673 272.587 145.803 266.96 142.756C261.334 139.71 256.386 135.55 252.419 130.53H180.579C176.253 130.516 172.109 128.79 169.052 125.73C165.994 122.671 164.272 118.525 164.262 114.2V53.9646C164.269 49.6368 165.989 45.4878 169.047 42.4251C172.105 39.3623 176.251 37.635 180.579 37.6208Z" fill="#082BDA"/>
<path opacity="0.1" d="M180.579 37.6208H292.04C296.367 37.635 300.512 39.36 303.572 42.4195C306.631 45.479 308.356 49.6245 308.37 53.9512V114.253C308.342 118.57 306.611 122.702 303.553 125.75C300.495 128.798 296.358 130.516 292.04 130.53H280.756L285.147 148.252C278.774 147.673 272.587 145.803 266.96 142.756C261.334 139.71 256.386 135.55 252.419 130.53H180.579C176.253 130.516 172.109 128.79 169.052 125.73C165.994 122.671 164.272 118.525 164.262 114.2V53.9646C164.269 49.6368 165.989 45.4878 169.047 42.4251C172.105 39.3623 176.251 37.635 180.579 37.6208Z" fill="#FAFAFA"/>
<path d="M288.627 58.623H183.992V68.5283H288.627V58.623Z" fill="#082BDA"/>
<path d="M264.694 79.1428H183.992V89.0481H264.694V79.1428Z" fill="#082BDA"/>
<path d="M275.228 99.6763H183.992V109.582H275.228V99.6763Z" fill="#082BDA"/>
<g opacity="0.3">
<path d="M288.627 58.6228H183.992V68.5281H288.627V58.6228Z" fill="black"/>
<path d="M264.694 79.1428H183.992V89.0481H264.694V79.1428Z" fill="black"/>
<path d="M275.228 99.6763H183.992V109.582H275.228V99.6763Z" fill="black"/>
</g>
<path d="M328.778 302.11C328.042 302.11 327.292 302.11 326.529 302.177C310.627 303.315 297.764 316.781 296.746 333.352C296.521 337.011 296.869 340.683 297.777 344.235C301.287 358.487 302.978 373.127 302.81 387.805V430.638C302.781 432.092 303.328 433.498 304.33 434.551C305.333 435.604 306.711 436.218 308.164 436.26H414.378V302.11H328.778Z" fill="#082BDA"/>
<path opacity="0.3" d="M328.778 302.11C328.042 302.11 327.292 302.11 326.529 302.177C310.627 303.315 297.764 316.781 296.746 333.352C296.521 337.011 296.869 340.683 297.777 344.235C301.287 358.487 302.978 373.127 302.81 387.805V430.638C302.781 432.092 303.328 433.498 304.33 434.551C305.333 435.604 306.711 436.218 308.164 436.26H414.378V302.11H328.778Z" fill="black"/>
<path d="M446.505 335.548C446.505 316.313 430.911 300.853 412.158 302.191C396.256 303.329 383.393 316.795 382.375 333.366C382.15 337.025 382.497 340.697 383.406 344.249C386.915 358.501 388.607 373.141 388.439 387.818V430.652C388.41 432.106 388.956 433.512 389.959 434.565C390.962 435.618 392.34 436.232 393.793 436.274H434.954C436.408 436.236 437.788 435.622 438.792 434.569C439.795 433.515 440.34 432.107 440.308 430.652V385.302C440.219 371.549 441.92 357.843 445.368 344.53C446.133 341.598 446.516 338.578 446.505 335.548Z" fill="#082BDA"/>
<path d="M370.182 354.782H234.773V436.193H370.182V354.782Z" fill="#082BDA"/>
<path opacity="0.3" d="M370.182 354.782H234.773V436.193H370.182V354.782Z" fill="black"/>
<path d="M162.893 257.269H312.41C318.984 257.269 325.29 259.88 329.939 264.529C334.588 269.178 337.2 275.484 337.2 282.059V373.187H138.09V282.059C138.09 278.802 138.731 275.577 139.978 272.569C141.225 269.56 143.052 266.827 145.355 264.525C147.659 262.223 150.393 260.397 153.402 259.152C156.412 257.907 159.637 257.267 162.893 257.269Z" fill="#082BDA"/>
<path opacity="0.4" d="M162.893 257.269H312.41C318.984 257.269 325.29 259.88 329.939 264.529C334.588 269.178 337.2 275.484 337.2 282.059V373.187H138.09V282.059C138.09 278.802 138.731 275.577 139.978 272.569C141.225 269.56 143.052 266.827 145.355 264.525C147.659 262.223 150.393 260.397 153.402 259.152C156.412 257.907 159.637 257.267 162.893 257.269Z" fill="black"/>
<path d="M192.286 257.269H320.091C326.35 257.269 332.353 259.755 336.778 264.18C341.204 268.606 343.69 274.609 343.69 280.867V373.227H168.688V280.867C168.688 277.768 169.298 274.7 170.484 271.836C171.67 268.973 173.408 266.372 175.599 264.18C177.791 261.989 180.392 260.251 183.255 259.065C186.119 257.879 189.187 257.269 192.286 257.269Z" fill="#082BDA"/>
<path d="M242.511 346.309H368.428C370.367 346.309 372.226 347.079 373.596 348.45C374.967 349.82 375.737 351.679 375.737 353.618V373.201C375.737 375.139 374.967 376.998 373.596 378.369C372.226 379.739 370.367 380.509 368.428 380.509H242.511C241.932 380.509 241.377 380.279 240.968 379.87C240.559 379.461 240.329 378.906 240.329 378.327V348.544C240.322 348.253 240.373 347.964 240.479 347.693C240.586 347.422 240.745 347.175 240.949 346.967C241.152 346.759 241.395 346.593 241.663 346.48C241.931 346.367 242.22 346.309 242.511 346.309Z" fill="#082BDA"/>
<path opacity="0.4" d="M242.511 346.309H368.428C370.367 346.309 372.226 347.079 373.596 348.45C374.967 349.82 375.737 351.679 375.737 353.618V373.201C375.737 375.139 374.967 376.998 373.596 378.369C372.226 379.739 370.367 380.509 368.428 380.509H242.511C241.932 380.509 241.377 380.279 240.968 379.87C240.559 379.461 240.329 378.906 240.329 378.327V348.544C240.322 348.253 240.373 347.964 240.479 347.693C240.586 347.422 240.745 347.175 240.949 346.967C241.152 346.759 241.395 346.593 241.663 346.48C241.931 346.367 242.22 346.309 242.511 346.309Z" fill="black"/>
<path d="M124.943 436.206H416.038V436.286C416.038 437.351 415.615 438.373 414.862 439.126C414.109 439.879 413.087 440.302 412.022 440.302H128.932C127.867 440.302 126.845 439.879 126.092 439.126C125.339 438.373 124.916 437.351 124.916 436.286V436.206H124.943Z" fill="#082BDA"/>
<path opacity="0.4" d="M124.943 436.206H416.038V436.286C416.038 437.351 415.615 438.373 414.862 439.126C414.109 439.879 413.087 440.302 412.022 440.302H128.932C127.867 440.302 126.845 439.879 126.092 439.126C125.339 438.373 124.916 437.351 124.916 436.286V436.206H124.943Z" fill="black"/>
<path d="M298.889 243.789L299.424 245.971L300.04 248.34C300.468 249.92 300.923 251.513 301.379 253.092C302.329 256.278 303.36 259.464 304.43 262.636C305.501 265.808 306.612 268.994 307.817 272.14C308.419 273.719 309.008 275.299 309.624 276.865L310.36 278.752C310.507 279.078 310.701 279.38 310.936 279.649C312.719 281.457 314.895 282.831 317.294 283.665C320.238 284.832 323.268 285.772 326.356 286.476C329.542 287.212 332.821 287.814 336.141 288.336C339.46 288.858 342.834 289.273 346.126 289.675L346.247 296.434C339.08 297.152 331.857 297.121 324.696 296.341C320.944 295.962 317.234 295.241 313.613 294.186C311.653 293.601 309.746 292.853 307.911 291.95C305.8 290.925 303.866 289.569 302.182 287.935C301.207 286.968 300.361 285.879 299.665 284.695C299.478 284.387 299.317 284.053 299.143 283.718L298.822 283.049L298.233 281.858C297.457 280.265 296.68 278.658 295.957 277.039C294.498 273.799 293.093 270.547 291.821 267.214C290.55 263.881 289.332 260.521 288.247 257.081C287.725 255.354 287.23 253.627 286.762 251.861L286.079 249.183C285.865 248.246 285.691 247.443 285.477 246.319L298.889 243.789Z" fill="#B55B52"/>
<path d="M294.623 229.561C299.978 230.899 303.779 253.106 303.779 253.106L288.935 263.199C288.935 263.199 274.692 240.831 278.842 234.915C283.206 228.744 286.753 227.566 294.623 229.561Z" fill="#082BDA"/>
<path opacity="0.5" d="M294.623 229.561C299.978 230.899 303.779 253.106 303.779 253.106L288.935 263.199C288.935 263.199 274.692 240.831 278.842 234.915C283.206 228.744 286.753 227.566 294.623 229.561Z" fill="#FAFAFA"/>
<path d="M295.103 237.618L283.578 240.295L282.467 251.566C284.422 255.551 286.58 259.433 288.932 263.198L297.927 257.081C297.552 251.901 296.589 241.125 295.103 237.618Z" fill="#082BDA"/>
<path opacity="0.3" d="M295.103 237.618L283.578 240.295L282.467 251.566C284.422 255.551 286.58 259.433 288.932 263.198L297.927 257.081C297.552 251.901 296.589 241.125 295.103 237.618Z" fill="#FAFAFA"/>
<path d="M344.225 289.555L353.501 280.186L354.719 293.424C354.719 293.424 347.759 298.122 342.953 295.592L344.225 289.555Z" fill="#B55B52"/>
<path d="M364.396 278.751L364.811 289.888L354.718 293.395L353.5 280.157L364.396 278.751Z" fill="#B55B52"/>
<path d="M294.62 229.561C294.62 229.561 300.844 231.756 288.369 308.455H235.282C236.179 286.851 236.206 273.519 225.912 229.186C233.326 227.652 240.842 226.659 248.4 226.214C256.421 225.639 264.473 225.639 272.494 226.214C282.881 227.165 294.62 229.561 294.62 229.561Z" fill="#082BDA"/>
<path opacity="0.5" d="M294.62 229.561C294.62 229.561 300.844 231.756 288.369 308.455H235.282C236.179 286.851 236.206 273.519 225.912 229.186C233.326 227.652 240.842 226.659 248.4 226.214C256.421 225.639 264.473 225.639 272.494 226.214C282.881 227.165 294.62 229.561 294.62 229.561Z" fill="#FAFAFA"/>
<path d="M278.679 226.91C276.644 226.643 274.556 226.402 272.521 226.214C264.5 225.639 256.449 225.639 248.428 226.214C246.567 226.308 244.72 226.442 242.939 226.616L243.328 227.834C243.542 228.517 248.856 244.686 268.011 253.267L271.678 254.913L274.275 251.834C277.228 248.486 279.202 244.388 279.979 239.991C280.756 235.594 280.306 231.068 278.679 226.91Z" fill="#082BDA"/>
<path opacity="0.3" d="M278.679 226.91C276.644 226.643 274.556 226.402 272.521 226.214C264.5 225.639 256.449 225.639 248.428 226.214C246.567 226.308 244.72 226.442 242.939 226.616L243.328 227.834C243.542 228.517 248.856 244.686 268.011 253.267L271.678 254.913L274.275 251.834C277.228 248.486 279.202 244.388 279.979 239.991C280.756 235.594 280.306 231.068 278.679 226.91Z" fill="black"/>
<path d="M238.359 249.773L231.506 255.596C232.978 263.359 233.955 269.825 234.585 275.567C235.87 269.798 239.122 254.177 238.359 249.773Z" fill="#082BDA"/>
<path opacity="0.3" d="M238.359 249.773L231.506 255.596C232.978 263.359 233.955 269.825 234.585 275.567C235.87 269.798 239.122 254.177 238.359 249.773Z" fill="#FAFAFA"/>
<path d="M258.039 159.809C243.985 155.405 236.154 170.517 237.506 189.417C238.483 202.964 235.753 208.867 227.654 208.465C231.442 217.367 279.189 230.752 293.003 214.837C289.121 212.735 287.18 203.379 290.018 194.999C296.443 176.099 290.486 147.561 258.039 159.809Z" fill="#263238"/>
<path d="M250.806 199.069C252.319 206.832 253.845 221.035 248.41 226.215C248.41 226.215 253.001 240.685 270.175 248.381C272.765 245.358 274.374 241.618 274.788 237.659C275.202 233.699 274.4 229.708 272.491 226.215C263.844 224.153 264.071 217.728 265.57 211.705L250.806 199.069Z" fill="#B55B52"/>
<path d="M256.834 204.222L265.601 211.705C265.23 213.104 264.979 214.533 264.852 215.975C261.545 215.506 257.008 211.879 256.66 208.412C256.464 207.016 256.523 205.597 256.834 204.222Z" fill="#9E4541"/>
<path d="M251.532 177.37C248.494 189.979 246.941 195.253 251.238 203.526C257.703 215.961 273.859 216.911 280.606 205.493C286.683 195.186 290.632 176.299 280.03 167.652C277.701 165.735 274.92 164.445 271.952 163.904C268.984 163.364 265.927 163.591 263.072 164.565C260.216 165.539 257.657 167.227 255.637 169.468C253.618 171.709 252.205 174.429 251.532 177.37Z" fill="#B55B52"/>
<path d="M249.297 184.773C249.297 184.773 275.399 176.648 263.459 162.928C249.404 166.395 249.297 170.517 249.297 170.517V184.773Z" fill="#263238"/>
<path d="M265.119 170.745C274.944 171.762 284.715 177.545 287.874 182.792C289.695 173.864 283.296 162.713 276.175 161.147C269.054 159.581 260.447 162.928 260.447 162.928L265.119 170.745Z" fill="#263238"/>
<path d="M245.039 185.737C244.995 188.235 245.905 190.657 247.582 192.51C249.831 194.946 252.561 193.353 253.284 190.341C253.927 187.664 253.538 183.073 250.607 181.761C247.676 180.449 245.119 182.685 245.039 185.737Z" fill="#B55B52"/>
<path d="M355.361 318.842C325.725 318.428 306.303 338.774 306.303 338.774C309.141 347.006 310.934 353.19 310.934 353.19C327.171 350.312 345.616 349.04 360.822 345.386C374.556 342.08 376.135 325.509 374.73 318.615C373.324 311.721 365.534 310.129 357.904 307.907C349.19 305.403 332.552 305.336 320.625 305.417C308.043 305.484 291.512 306.675 282.945 308.482C282.945 308.482 264.754 307.907 251.288 308.241C243.418 307.117 248.049 318.548 260.471 328.226C266.91 333.137 274.28 336.688 282.133 338.665C289.986 340.641 298.159 341.002 306.156 339.724H306.249" fill="#263238"/>
<path d="M309.088 351.222L305.314 337.033C305.256 336.786 305.11 336.569 304.902 336.424C304.695 336.278 304.441 336.214 304.189 336.243L292.531 337.582C292.231 337.623 291.944 337.729 291.69 337.892C291.435 338.054 291.219 338.271 291.056 338.525C290.893 338.78 290.787 339.066 290.746 339.366C290.705 339.665 290.729 339.97 290.817 340.259C292.223 345.185 293.146 347.487 294.833 353.725C295.85 357.567 297.51 365.611 298.969 370.912C300.428 376.213 305.662 375.102 305.595 372.773C305.086 362.305 306.933 357.633 308.901 353.551C309.237 352.821 309.303 351.996 309.088 351.222Z" fill="#263238"/>
<path d="M310.653 359.588C310.343 359.586 310.04 359.493 309.783 359.32C308.217 358.303 307.762 354.569 307.628 352.44C307.624 352.395 307.634 352.35 307.657 352.311C307.68 352.272 307.715 352.241 307.757 352.223C307.798 352.206 307.845 352.201 307.889 352.211C307.933 352.222 307.973 352.245 308.003 352.28C308.444 352.762 312.326 357.072 311.911 358.812C311.873 358.963 311.797 359.102 311.689 359.215C311.581 359.327 311.445 359.41 311.296 359.454C311.093 359.543 310.874 359.589 310.653 359.588ZM308.11 353.056C308.377 356.148 309.074 358.33 310.024 358.946C310.188 359.055 310.376 359.122 310.573 359.141C310.769 359.16 310.967 359.129 311.148 359.053C311.23 359.029 311.304 358.985 311.362 358.924C311.421 358.863 311.463 358.787 311.483 358.705C311.764 357.567 309.435 354.582 308.11 353.056Z" fill="#082BDA"/>
<path d="M309.128 353.739L304.229 335.36L310.68 332.697L319.769 352.427L309.128 353.739Z" fill="#082BDA"/>
<path opacity="0.6" d="M309.128 353.739L304.229 335.36L310.68 332.697L319.769 352.427L309.128 353.739Z" fill="#FAFAFA"/>
<path d="M313 355.599C311.434 355.599 308.623 353.712 307.646 352.56C307.63 352.527 307.621 352.491 307.621 352.453C307.621 352.416 307.63 352.38 307.646 352.346C307.66 352.311 307.682 352.28 307.71 352.255C307.738 352.229 307.771 352.21 307.807 352.199C307.954 352.199 311.394 351.57 313.161 352.788C313.409 352.953 313.619 353.168 313.779 353.419C313.938 353.67 314.042 353.953 314.085 354.247C314.219 355.037 313.884 355.371 313.589 355.492C313.406 355.58 313.203 355.617 313 355.599ZM308.289 352.56C309.627 353.899 312.465 355.479 313.362 355.09C313.442 355.09 313.696 354.93 313.603 354.301C313.568 354.064 313.483 353.838 313.354 353.637C313.225 353.436 313.054 353.265 312.853 353.136C311.608 352.266 309.226 352.453 308.289 352.56Z" fill="#082BDA"/>
<path d="M245.443 309.165C228.966 307.05 204.591 306.233 203.199 323.407C201.807 340.58 213.653 358.209 245.872 359.16C278.091 360.11 285.051 352.012 286.202 345.105C287.675 336.377 290.218 334.155 282.521 330.207C274.825 326.258 273.406 312.739 245.443 309.165Z" fill="#263238"/>
<path d="M280.294 354.154L276.506 339.965C276.433 339.722 276.453 339.46 276.562 339.23C276.671 339 276.86 338.819 277.095 338.721L287.897 334.116C288.172 334.01 288.466 333.964 288.761 333.979C289.055 333.994 289.343 334.071 289.605 334.205C289.868 334.339 290.099 334.527 290.285 334.756C290.47 334.985 290.605 335.25 290.681 335.535C291.913 340.514 292.261 342.977 293.92 349.215C294.938 353.057 297.454 360.887 298.873 366.188C300.292 371.488 295.112 373.175 294.054 371.087C289.289 361.717 285.314 358.638 281.619 356.055C280.969 355.595 280.501 354.923 280.294 354.154Z" fill="#263238"/>
<path d="M282.292 362.426C282.169 362.429 282.047 362.405 281.934 362.356C281.821 362.308 281.719 362.236 281.636 362.145C280.405 360.807 281.636 355.185 281.77 354.542C281.778 354.497 281.801 354.456 281.835 354.424C281.869 354.393 281.912 354.373 281.958 354.368C282.002 354.362 282.046 354.37 282.085 354.392C282.124 354.414 282.154 354.448 282.172 354.489C283.122 356.403 284.581 359.843 283.724 361.53C283.606 361.768 283.43 361.973 283.213 362.127C282.995 362.281 282.744 362.379 282.48 362.413L282.292 362.426ZM282.065 355.265C281.676 357.26 281.141 360.994 281.944 361.837C282.002 361.902 282.076 361.949 282.158 361.975C282.241 362.001 282.329 362.004 282.413 361.985C282.609 361.96 282.795 361.886 282.956 361.772C283.117 361.658 283.248 361.505 283.336 361.329C284.046 359.95 282.774 356.818 282.065 355.238V355.265Z" fill="#082BDA"/>
<path d="M278.491 360.083C278.169 360.083 277.781 359.922 277.527 359.239C277.421 358.962 277.373 358.666 277.384 358.369C277.396 358.073 277.467 357.781 277.594 357.513C278.477 355.612 281.77 354.421 281.904 354.381C281.936 354.36 281.973 354.35 282.011 354.35C282.049 354.35 282.086 354.36 282.118 354.381C282.151 354.402 282.176 354.432 282.19 354.468C282.205 354.504 282.207 354.544 282.198 354.581C281.917 356.241 280.03 359.936 278.571 360.043L278.491 360.083ZM281.676 354.943C280.806 355.304 278.638 356.281 277.995 357.7C277.904 357.911 277.857 358.139 277.857 358.369C277.857 358.6 277.904 358.827 277.995 359.039C278.21 359.628 278.504 359.601 278.584 359.588C279.508 359.547 281.208 356.777 281.676 354.943Z" fill="#082BDA"/>
<path d="M280.896 353.979L277.818 336.766L270.295 336.484L270.87 358.396L280.896 353.979Z" fill="#082BDA"/>
<path opacity="0.6" d="M280.896 353.979L277.818 336.766L270.295 336.484L270.87 358.396L280.896 353.979Z" fill="#FAFAFA"/>
<path d="M269.243 186.58C268.935 187.584 269.243 188.561 269.886 188.775C270.528 188.99 271.331 188.32 271.639 187.316C271.947 186.312 271.639 185.322 270.997 185.121C270.354 184.92 269.565 185.59 269.243 186.58Z" fill="#263238"/>
<path d="M280.63 190.086C280.322 191.104 280.63 192.081 281.273 192.282C281.915 192.482 282.718 191.827 283.026 190.823C283.334 189.819 283.026 188.828 282.384 188.627C281.741 188.427 280.951 189.083 280.63 190.086Z" fill="#263238"/>
<path d="M282.078 188.601H284.755C284.755 188.601 282.895 190.154 282.078 188.601Z" fill="#263238"/>
<path d="M277.1 190.903C277.29 193.477 277.835 196.013 278.719 198.439C278.092 198.647 277.427 198.715 276.77 198.638C276.113 198.562 275.481 198.343 274.918 197.997L277.1 190.903Z" fill="#A02724"/>
<path d="M269.284 200.207C269.271 200.213 269.257 200.216 269.243 200.216C269.23 200.216 269.216 200.213 269.203 200.207C267.171 199.114 265.641 197.277 264.933 195.08C264.925 195.056 264.922 195.03 264.925 195.004C264.927 194.978 264.935 194.953 264.947 194.93C264.96 194.908 264.977 194.888 264.998 194.872C265.018 194.857 265.042 194.845 265.067 194.839C265.117 194.827 265.169 194.833 265.214 194.858C265.259 194.883 265.293 194.924 265.308 194.973C265.992 197.045 267.424 198.787 269.324 199.859C269.362 199.881 269.391 199.914 269.409 199.954C269.426 199.995 269.429 200.039 269.419 200.082C269.408 200.124 269.384 200.162 269.35 200.189C269.316 200.217 269.274 200.232 269.23 200.234L269.284 200.207Z" fill="#263238"/>
<path d="M268.677 179.887C268.591 179.886 268.509 179.857 268.441 179.805C268.373 179.753 268.323 179.68 268.299 179.598C268.275 179.516 268.278 179.428 268.308 179.348C268.337 179.267 268.392 179.199 268.463 179.151C269.235 178.616 270.123 178.272 271.054 178.148C271.985 178.025 272.933 178.126 273.817 178.442C273.912 178.486 273.987 178.564 274.027 178.661C274.066 178.758 274.068 178.866 274.031 178.964C274.011 179.012 273.981 179.056 273.944 179.092C273.906 179.128 273.862 179.157 273.813 179.175C273.764 179.194 273.712 179.203 273.66 179.201C273.608 179.199 273.557 179.187 273.509 179.165C272.738 178.901 271.915 178.823 271.108 178.937C270.301 179.051 269.532 179.354 268.864 179.821C268.809 179.858 268.744 179.881 268.677 179.887Z" fill="#263238"/>
<path d="M287.848 186.66C287.775 186.66 287.705 186.64 287.643 186.603C287.582 186.565 287.532 186.51 287.5 186.446C287.132 185.719 286.599 185.088 285.943 184.605C285.288 184.121 284.528 183.798 283.725 183.662C283.673 183.658 283.622 183.645 283.575 183.621C283.528 183.597 283.487 183.565 283.453 183.525C283.419 183.485 283.394 183.438 283.378 183.388C283.363 183.338 283.358 183.285 283.363 183.233C283.377 183.132 283.429 183.039 283.508 182.974C283.588 182.909 283.689 182.878 283.792 182.885C284.73 183.023 285.621 183.386 286.388 183.943C287.155 184.5 287.775 185.235 288.196 186.085C288.244 186.177 288.254 186.285 288.224 186.385C288.194 186.485 288.126 186.569 288.035 186.62C287.976 186.646 287.912 186.66 287.848 186.66Z" fill="#263238"/>
<path d="M270.688 185.094H273.365C273.365 185.094 271.504 186.66 270.688 185.094Z" fill="#263238"/>
<path d="M234.487 305.336L234.059 310.088C233.872 310.463 234.313 310.837 234.929 310.837H288.632C289.1 310.837 289.502 310.596 289.529 310.302L290.011 305.55C290.011 305.215 289.636 304.934 289.1 304.934H235.344C235.179 304.921 235.013 304.951 234.862 305.021C234.712 305.091 234.583 305.2 234.487 305.336Z" fill="#082BDA"/>
<path opacity="0.3" d="M234.487 305.336L234.059 310.088C233.872 310.463 234.313 310.837 234.929 310.837H288.632C289.1 310.837 289.502 310.596 289.529 310.302L290.011 305.55C290.011 305.215 289.636 304.934 289.1 304.934H235.344C235.179 304.921 235.013 304.951 234.862 305.021C234.712 305.091 234.583 305.2 234.487 305.336Z" fill="black"/>
<path d="M241.704 311.346H240.271C239.977 311.346 239.763 311.199 239.776 311.025L240.459 304.841C240.459 304.667 240.726 304.52 241.007 304.52H242.453C242.734 304.52 242.962 304.667 242.935 304.841L242.266 311.025C242.239 311.199 241.998 311.346 241.704 311.346Z" fill="#263238"/>
<path d="M284.538 311.346H283.199C282.904 311.346 282.69 311.199 282.717 311.025L283.386 304.841C283.386 304.667 283.654 304.52 283.949 304.52H285.381C285.675 304.52 285.889 304.667 285.863 304.841L285.193 311.025C285.126 311.199 284.872 311.346 284.538 311.346Z" fill="#263238"/>
<path d="M263.125 311.346H261.679C261.398 311.346 261.171 311.199 261.197 311.025L261.867 304.841C261.867 304.667 262.148 304.52 262.429 304.52H263.875C264.156 304.52 264.37 304.667 264.356 304.841L263.674 311.025C263.687 311.199 263.433 311.346 263.125 311.346Z" fill="#263238"/>
<path d="M383.488 271.766H290.324L276.818 326.78H369.982L383.488 271.766Z" fill="#FAFAFA"/>
<path d="M336.286 316.527L279.304 329.819L242.734 319.565L243.109 316.527H336.286Z" fill="#FAFAFA"/>
<path d="M233.806 248.153C232.682 251.794 231.477 255.582 230.406 259.33C229.335 263.078 228.198 266.813 227.221 270.561C226.243 274.308 225.306 278.043 224.543 281.711C224.195 283.531 223.874 285.352 223.66 287.065C223.493 288.271 223.412 289.488 223.419 290.706C223.731 291.689 224.272 292.584 224.999 293.316C226.082 294.499 227.29 295.562 228.599 296.488C231.561 298.628 234.695 300.517 237.969 302.137C244.931 305.552 252.082 308.568 259.386 311.172L257.766 317.731C249.637 316.396 241.653 314.285 233.927 311.427C229.878 309.948 225.975 308.097 222.268 305.898C220.231 304.657 218.325 303.213 216.579 301.588C214.372 299.587 212.702 297.065 211.72 294.253C211.439 293.382 211.246 292.485 211.145 291.576V290.88V290.371V289.448C211.145 288.243 211.145 287.092 211.145 285.967C211.265 283.719 211.506 281.59 211.814 279.502C212.416 275.299 213.152 271.257 214.156 267.268C215.16 263.279 216.084 259.33 217.195 255.421C218.306 251.513 219.484 247.671 220.849 243.763L233.806 248.153Z" fill="#B55B52"/>
<path d="M225.872 229.186C220.518 230.806 212.486 251.674 212.486 251.674L233.113 266.398C233.113 266.398 242.39 248.555 240.154 241.675C237.758 234.54 231.949 227.339 225.872 229.186Z" fill="#082BDA"/>
<path opacity="0.5" d="M225.872 229.186C220.518 230.806 212.486 251.674 212.486 251.674L233.113 266.398C233.113 266.398 242.39 248.555 240.154 241.675C237.758 234.54 231.949 227.339 225.872 229.186Z" fill="#FAFAFA"/>
<path d="M256.791 311.587L269.186 308.455L263.283 320.354C263.283 320.354 254.904 320.716 252.133 316.044L256.791 311.587Z" fill="#B55B52"/>
<path d="M279.212 312.979L273.724 322.683L263.283 320.354L269.186 308.455L279.212 312.979Z" fill="#B55B52"/>
<path d="M386.353 271.766H293.19L279.684 326.78H372.847L386.353 271.766Z" fill="#FAAB3C"/>
<path d="M372.843 326.78L372.468 329.818H279.305L279.679 326.78H372.843Z" fill="#FB9200"/>
<path d="M444.643 393.48H443.305V409.53H444.643V393.48Z" fill="#082BDA"/>
<path opacity="0.3" d="M444.643 393.48H443.305V409.53H444.643V393.48Z" fill="black"/>
<path d="M444.643 415.701H443.305V421.403H444.643V415.701Z" fill="#082BDA"/>
<path opacity="0.3" d="M444.643 415.701H443.305V421.403H444.643V415.701Z" fill="black"/>
<path d="M126.591 302.11C125.841 302.11 125.092 302.11 124.329 302.177C108.427 303.315 95.5633 316.781 94.5594 333.352C94.3205 337.011 94.6684 340.685 95.5901 344.235C99.0931 358.489 100.784 373.127 100.623 387.805V430.638C100.591 432.093 101.136 433.501 102.139 434.555C103.143 435.608 104.523 436.222 105.977 436.26H236.352V302.11H126.591Z" fill="#082BDA"/>
<path opacity="0.3" d="M126.591 302.11C125.841 302.11 125.092 302.11 124.329 302.177C108.427 303.315 95.5633 316.781 94.5594 333.352C94.3205 337.011 94.6684 340.685 95.5901 344.235C99.0931 358.489 100.784 373.127 100.623 387.805V430.638C100.591 432.093 101.136 433.501 102.139 434.555C103.143 435.608 104.523 436.222 105.977 436.26H236.352V302.11H126.591Z" fill="black"/>
<path d="M268.477 335.548C268.477 316.313 252.869 300.853 234.116 302.191C218.214 303.329 205.35 316.795 204.346 333.366C204.108 337.025 204.456 340.699 205.377 344.249C208.88 358.502 210.571 373.141 210.41 387.818V430.652C210.378 432.107 210.923 433.515 211.926 434.569C212.93 435.622 214.31 436.236 215.764 436.274H256.925C258.378 436.232 259.756 435.618 260.759 434.565C261.762 433.512 262.308 432.106 262.279 430.652V385.302C262.159 371.553 263.829 357.848 267.245 344.53C268.049 341.603 268.463 338.583 268.477 335.548Z" fill="#082BDA"/>
</g>
<defs>
<filter id="filter0_d_539_3467" x="0" y="0.000244141" width="528" height="466" filterUnits="userSpaceOnUse" color-interpolation-filters="sRGB">
<feFlood flood-opacity="0" result="BackgroundImageFix"/>
<feColorMatrix in="SourceAlpha" type="matrix" values="0 0 0 0 0 0 0 0 0 0 0 0 0 0 0 0 0 0 127 0" result="hardAlpha"/>
<feOffset dy="4"/>
<feGaussianBlur stdDeviation="2"/>
<feComposite in2="hardAlpha" operator="out"/>
<feColorMatrix type="matrix" values="0 0 0 0 0 0 0 0 0 0 0 0 0 0 0 0 0 0 0.25 0"/>
<feBlend mode="normal" in2="BackgroundImageFix" result="effect1_dropShadow_539_3467"/>
<feBlend mode="normal" in="SourceGraphic" in2="effect1_dropShadow_539_3467" result="shape"/>
</filter>
<clipPath id="clip0_539_3467">
<rect width="520" height="458" fill="white" transform="translate(4 0.000244141)"/>
</clipPath>
</defs>
</svg>
