<svg width="1440" height="46" viewBox="0 0 1440 46" fill="none" xmlns="http://www.w3.org/2000/svg">
<path fill-rule="evenodd" clip-rule="evenodd" d="M1440 30.6666L1359.6 31.9444C1280.4 33.2222 1119.6 35.7778 960 33.2222C800.4 30.6667 639.6 23 480 24.2778C320.4 25.5556 159.6 35.7779 80.3999 40.889L0 46.0001L-4.02146e-06 3.7885e-09L80.3999 -7.02499e-06C159.6 -1.39489e-05 320.4 -2.80065e-05 480 -4.19591e-05C639.6 -5.59118e-05 800.4 -6.99694e-05 960 -8.39221e-05C1119.6 -9.78748e-05 1280.4 -0.000111932 1359.6 -0.000118856L1440 -0.000125885L1440 30.6666Z" fill="#FCF5EA"/>
</svg>
