<svg width="19" height="23" viewBox="0 0 19 23" fill="none" xmlns="http://www.w3.org/2000/svg">
<path d="M15.4487 12.2205C15.4599 11.3525 15.6904 10.5015 16.1189 9.74659C16.5474 8.99168 17.1598 8.35741 17.8993 7.90279C17.4295 7.23189 16.8098 6.67977 16.0893 6.29027C15.3689 5.90078 14.5675 5.68464 13.7489 5.65903C12.0026 5.47573 10.3098 6.70395 9.41988 6.70395C8.51281 6.70395 7.14275 5.67723 5.66741 5.70758C4.71313 5.73841 3.7831 6.01591 2.96795 6.51304C2.1528 7.01017 1.48032 7.70998 1.01604 8.54428C-0.995067 12.0263 0.505043 17.1437 2.43155 19.9583C3.39543 21.3365 4.52192 22.876 5.99593 22.8214C7.43833 22.7616 7.97704 21.9017 9.71813 21.9017C11.4431 21.9017 11.9485 22.8214 13.4524 22.7867C15.0002 22.7616 15.9753 21.4024 16.9054 20.0111C17.5979 19.0291 18.1309 17.9437 18.4844 16.7952C17.5852 16.4149 16.8178 15.7783 16.278 14.9648C15.7382 14.1513 15.4497 13.1968 15.4487 12.2205Z" fill="black"/>
<path d="M12.608 3.80799C13.4519 2.79492 13.8677 1.49278 13.767 0.178101C12.4777 0.313516 11.2868 0.929714 10.4315 1.90392C10.0133 2.37985 9.69298 2.93352 9.48891 3.53331C9.28483 4.13309 9.20097 4.76721 9.24211 5.39942C9.88699 5.40606 10.525 5.26628 11.108 4.99062C11.691 4.71496 12.2039 4.3106 12.608 3.80799Z" fill="black"/>
</svg>
