<svg width="237" height="274" viewBox="0 0 237 274" fill="none" xmlns="http://www.w3.org/2000/svg">
<rect y="37" width="200" height="200" rx="100" fill="#2443DE"/>
<mask id="mask0_69_1087" style="mask-type:alpha" maskUnits="userSpaceOnUse" x="-37" y="0" width="274" height="274">
<rect x="-36.6025" y="173.603" width="200" height="200" rx="100" transform="rotate(-60 -36.6025 173.603)" fill="#132374"/>
</mask>
<g mask="url(#mask0_69_1087)">
<path fill-rule="evenodd" clip-rule="evenodd" d="M39.9438 244.657L43.6698 235.775C22 232 21.076 180.261 30.9999 165.5C32 164.5 45.5 139 82.5 130C86 129.149 117.086 119.261 116.495 98.4301C115.904 77.5988 108.727 52.6725 112.342 34.2695C115.957 15.8666 133.924 4.17335 142.225 -0.491132L151.208 -6.33773L245.786 48.2667L241.009 56.5416C236.914 63.6343 236.421 54.6344 227.548 70.002C218.676 85.3696 219.372 129.632 210.5 145C190.83 179.07 193.769 192.587 184.897 207.955C176.024 223.322 124.075 250.679 115.203 266.047C106.33 281.415 118.159 269.324 114.064 276.417L109.286 284.692L39.9438 244.657Z" fill="#132374"/>
</g>
</svg>
