<svg width="233" height="243" viewBox="0 0 233 243" fill="none" xmlns="http://www.w3.org/2000/svg">
<rect x="33" y="6" width="200" height="200" rx="100" fill="#F6A635"/>
<mask id="mask0_69_1117" style="mask-type:alpha" maskUnits="userSpaceOnUse" x="-4" y="-31" width="274" height="274">
<rect x="169.603" y="-30.6025" width="200" height="200" rx="100" transform="rotate(60 169.603 -30.6025)" fill="#2443DE"/>
</mask>
<g mask="url(#mask0_69_1117)">
<path fill-rule="evenodd" clip-rule="evenodd" d="M69.7946 0.161279L75.6236 7.82909C80.77 14.3148 92.428 29.6504 100.249 45.6251C108.07 61.5998 116.725 79.9527 123.495 96.5344C130.264 113.116 205.164 151.096 223.5 161C241.836 170.904 178.097 197.46 192.227 209.792C206.357 222.124 231.069 201.792 230.958 211.313L231.53 222.017L136.952 276.621L132.175 268.346C128.08 261.253 136.12 265.327 127.248 249.959C118.375 234.591 103.873 181.867 95 166.5C75.3298 132.43 17.3725 142.367 8.50005 127C-0.372452 111.632 22.5131 70.0102 13.6406 54.6425C4.76811 39.2749 9.32476 55.5637 5.22976 48.471L0.452264 40.1961L69.7946 0.161279Z" fill="#FFC97D"/>
</g>
</svg>
