<svg width="40" height="40" viewBox="0 0 40 40" fill="none" xmlns="http://www.w3.org/2000/svg">
<mask id="mask0_69_1165" style="mask-type:alpha" maskUnits="userSpaceOnUse" x="0" y="0" width="40" height="40">
<rect width="40" height="40" fill="#D9D9D9"/>
</mask>
<g mask="url(#mask0_69_1165)">
<path d="M6.66667 34.9999C6.19444 34.9999 5.79861 34.8402 5.47917 34.5208C5.15972 34.2013 5 33.8055 5 33.3333V31.6666C5 31.1944 5.15972 30.7985 5.47917 30.4791C5.79861 30.1597 6.19444 29.9999 6.66667 29.9999C7.13889 29.9999 7.53472 30.1597 7.85417 30.4791C8.17361 30.7985 8.33333 31.1944 8.33333 31.6666V33.3333C8.33333 33.8055 8.17361 34.2013 7.85417 34.5208C7.53472 34.8402 7.13889 34.9999 6.66667 34.9999ZM13.3333 34.9999C12.8611 34.9999 12.4653 34.8402 12.1458 34.5208C11.8264 34.2013 11.6667 33.8055 11.6667 33.3333V24.1666C11.6667 23.6944 11.8264 23.2985 12.1458 22.9791C12.4653 22.6597 12.8611 22.4999 13.3333 22.4999C13.8056 22.4999 14.2014 22.6597 14.5208 22.9791C14.8403 23.2985 15 23.6944 15 24.1666V33.3333C15 33.8055 14.8403 34.2013 14.5208 34.5208C14.2014 34.8402 13.8056 34.9999 13.3333 34.9999ZM20 34.9999C19.5278 34.9999 19.1319 34.8402 18.8125 34.5208C18.4931 34.2013 18.3333 33.8055 18.3333 33.3333V27.4999C18.3333 27.0277 18.4931 26.6319 18.8125 26.3124C19.1319 25.993 19.5278 25.8333 20 25.8333C20.4722 25.8333 20.8681 25.993 21.1875 26.3124C21.5069 26.6319 21.6667 27.0277 21.6667 27.4999V33.3333C21.6667 33.8055 21.5069 34.2013 21.1875 34.5208C20.8681 34.8402 20.4722 34.9999 20 34.9999ZM26.6667 34.9999C26.1944 34.9999 25.7986 34.8402 25.4792 34.5208C25.1597 34.2013 25 33.8055 25 33.3333V24.9999C25 24.5277 25.1597 24.1319 25.4792 23.8124C25.7986 23.493 26.1944 23.3333 26.6667 23.3333C27.1389 23.3333 27.5347 23.493 27.8542 23.8124C28.1736 24.1319 28.3333 24.5277 28.3333 24.9999V33.3333C28.3333 33.8055 28.1736 34.2013 27.8542 34.5208C27.5347 34.8402 27.1389 34.9999 26.6667 34.9999ZM33.3333 34.9999C32.8611 34.9999 32.4653 34.8402 32.1458 34.5208C31.8264 34.2013 31.6667 33.8055 31.6667 33.3333V18.3333C31.6667 17.861 31.8264 17.4652 32.1458 17.1458C32.4653 16.8263 32.8611 16.6666 33.3333 16.6666C33.8056 16.6666 34.2014 16.8263 34.5208 17.1458C34.8403 17.4652 35 17.861 35 18.3333V33.3333C35 33.8055 34.8403 34.2013 34.5208 34.5208C34.2014 34.8402 33.8056 34.9999 33.3333 34.9999ZM23.3333 19.9583C22.8889 19.9583 22.4653 19.8749 22.0625 19.7083C21.6597 19.5416 21.2917 19.3055 20.9583 18.9999L16.6667 14.7083L7.83333 23.5416C7.5 23.8749 7.10417 24.0347 6.64583 24.0208C6.1875 24.0069 5.79167 23.8333 5.45833 23.4999C5.15278 23.1666 5.00694 22.7708 5.02083 22.3124C5.03472 21.8541 5.19444 21.4722 5.5 21.1666L14.2917 12.3749C14.625 12.0416 14.9931 11.7985 15.3958 11.6458C15.7986 11.493 16.2222 11.4166 16.6667 11.4166C17.1111 11.4166 17.5417 11.493 17.9583 11.6458C18.375 11.7985 18.7361 12.0416 19.0417 12.3749L23.3333 16.6666L32.1667 7.83327C32.5 7.49994 32.8958 7.34022 33.3542 7.3541C33.8125 7.36799 34.2083 7.5416 34.5417 7.87494C34.8472 8.20827 34.9931 8.6041 34.9792 9.06244C34.9653 9.52077 34.8056 9.90272 34.5 10.2083L25.7083 18.9999C25.4028 19.3055 25.0417 19.5416 24.625 19.7083C24.2083 19.8749 23.7778 19.9583 23.3333 19.9583Z" fill="#132374"/>
</g>
</svg>
