<svg width="48" height="48" viewBox="0 0 48 48" fill="none" xmlns="http://www.w3.org/2000/svg">
<mask id="mask0_69_978" style="mask-type:alpha" maskUnits="userSpaceOnUse" x="0" y="0" width="48" height="48">
<rect width="48" height="48" fill="#D9D9D9"/>
</mask>
<g mask="url(#mask0_69_978)">
<path d="M8 42C7.43333 42 6.95833 41.8083 6.575 41.425C6.19167 41.0416 6 40.5666 6 40V38C6 37.4333 6.19167 36.9583 6.575 36.575C6.95833 36.1916 7.43333 36 8 36C8.56667 36 9.04167 36.1916 9.425 36.575C9.80833 36.9583 10 37.4333 10 38V40C10 40.5666 9.80833 41.0416 9.425 41.425C9.04167 41.8083 8.56667 42 8 42ZM16 42C15.4333 42 14.9583 41.8083 14.575 41.425C14.1917 41.0416 14 40.5666 14 40V29C14 28.4333 14.1917 27.9583 14.575 27.575C14.9583 27.1916 15.4333 27 16 27C16.5667 27 17.0417 27.1916 17.425 27.575C17.8083 27.9583 18 28.4333 18 29V40C18 40.5666 17.8083 41.0416 17.425 41.425C17.0417 41.8083 16.5667 42 16 42ZM24 42C23.4333 42 22.9583 41.8083 22.575 41.425C22.1917 41.0416 22 40.5666 22 40V33C22 32.4333 22.1917 31.9583 22.575 31.575C22.9583 31.1916 23.4333 31 24 31C24.5667 31 25.0417 31.1916 25.425 31.575C25.8083 31.9583 26 32.4333 26 33V40C26 40.5666 25.8083 41.0416 25.425 41.425C25.0417 41.8083 24.5667 42 24 42ZM32 42C31.4333 42 30.9583 41.8083 30.575 41.425C30.1917 41.0416 30 40.5666 30 40V30C30 29.4333 30.1917 28.9583 30.575 28.575C30.9583 28.1916 31.4333 28 32 28C32.5667 28 33.0417 28.1916 33.425 28.575C33.8083 28.9583 34 29.4333 34 30V40C34 40.5666 33.8083 41.0416 33.425 41.425C33.0417 41.8083 32.5667 42 32 42ZM40 42C39.4333 42 38.9583 41.8083 38.575 41.425C38.1917 41.0416 38 40.5666 38 40V22C38 21.4333 38.1917 20.9583 38.575 20.575C38.9583 20.1916 39.4333 20 40 20C40.5667 20 41.0417 20.1916 41.425 20.575C41.8083 20.9583 42 21.4333 42 22V40C42 40.5666 41.8083 41.0416 41.425 41.425C41.0417 41.8083 40.5667 42 40 42ZM28 23.95C27.4667 23.95 26.9583 23.85 26.475 23.65C25.9917 23.45 25.55 23.1666 25.15 22.8L20 17.65L9.4 28.25C9 28.65 8.525 28.8416 7.975 28.825C7.425 28.8083 6.95 28.6 6.55 28.2C6.18333 27.8 6.00833 27.325 6.025 26.775C6.04167 26.225 6.23333 25.7666 6.6 25.4L17.15 14.85C17.55 14.45 17.9917 14.1583 18.475 13.975C18.9583 13.7916 19.4667 13.7 20 13.7C20.5333 13.7 21.05 13.7916 21.55 13.975C22.05 14.1583 22.4833 14.45 22.85 14.85L28 20L38.6 9.39997C39 8.99997 39.475 8.80831 40.025 8.82497C40.575 8.84164 41.05 9.04997 41.45 9.44997C41.8167 9.84997 41.9917 10.325 41.975 10.875C41.9583 11.425 41.7667 11.8833 41.4 12.25L30.85 22.8C30.4833 23.1666 30.05 23.45 29.55 23.65C29.05 23.85 28.5333 23.95 28 23.95Z" fill="#EAEEFE"/>
</g>
</svg>
