<svg width="40" height="40" viewBox="0 0 40 40" fill="none" xmlns="http://www.w3.org/2000/svg">
<mask id="mask0_71_1234" style="mask-type:alpha" maskUnits="userSpaceOnUse" x="0" y="0" width="40" height="40">
<rect width="40" height="40" fill="#D9D9D9"/>
</mask>
<g mask="url(#mask0_71_1234)">
<path d="M7.58328 31.6668C6.16661 31.6668 5.06939 31.1738 4.29161 30.1877C3.51383 29.2016 3.22217 28.0002 3.41661 26.5835L5.16661 14.0835C5.41661 12.4168 6.15967 11.0418 7.39578 9.9585C8.63189 8.87516 10.0833 8.3335 11.7499 8.3335H28.2499C29.9166 8.3335 31.368 8.87516 32.6041 9.9585C33.8402 11.0418 34.5833 12.4168 34.8333 14.0835L36.5833 26.5835C36.7777 28.0002 36.4861 29.2016 35.7083 30.1877C34.9305 31.1738 33.8333 31.6668 32.4166 31.6668C31.8333 31.6668 31.2916 31.5627 30.7916 31.3543C30.2916 31.146 29.8333 30.8335 29.4166 30.4168L25.6666 26.6668H14.3333L10.5833 30.4168C10.1666 30.8335 9.70828 31.146 9.20828 31.3543C8.70828 31.5627 8.16661 31.6668 7.58328 31.6668ZM28.3333 21.6668C28.8055 21.6668 29.2013 21.5071 29.5208 21.1877C29.8402 20.8682 29.9999 20.4724 29.9999 20.0002C29.9999 19.5279 29.8402 19.1321 29.5208 18.8127C29.2013 18.4932 28.8055 18.3335 28.3333 18.3335C27.8611 18.3335 27.4652 18.4932 27.1458 18.8127C26.8263 19.1321 26.6666 19.5279 26.6666 20.0002C26.6666 20.4724 26.8263 20.8682 27.1458 21.1877C27.4652 21.5071 27.8611 21.6668 28.3333 21.6668ZM24.9999 16.6668C25.4722 16.6668 25.868 16.5071 26.1874 16.1877C26.5069 15.8682 26.6666 15.4724 26.6666 15.0002C26.6666 14.5279 26.5069 14.1321 26.1874 13.8127C25.868 13.4932 25.4722 13.3335 24.9999 13.3335C24.5277 13.3335 24.1319 13.4932 23.8124 13.8127C23.493 14.1321 23.3333 14.5279 23.3333 15.0002C23.3333 15.4724 23.493 15.8682 23.8124 16.1877C24.1319 16.5071 24.5277 16.6668 24.9999 16.6668ZM12.9166 18.7502V20.4168C12.9166 20.7779 13.0347 21.0766 13.2708 21.3127C13.5069 21.5488 13.8055 21.6668 14.1666 21.6668C14.5277 21.6668 14.8263 21.5488 15.0624 21.3127C15.2986 21.0766 15.4166 20.7779 15.4166 20.4168V18.7502H17.0833C17.4444 18.7502 17.743 18.6321 17.9791 18.396C18.2152 18.1599 18.3333 17.8613 18.3333 17.5002C18.3333 17.1391 18.2152 16.8404 17.9791 16.6043C17.743 16.3682 17.4444 16.2502 17.0833 16.2502H15.4166V14.5835C15.4166 14.2224 15.2986 13.9238 15.0624 13.6877C14.8263 13.4516 14.5277 13.3335 14.1666 13.3335C13.8055 13.3335 13.5069 13.4516 13.2708 13.6877C13.0347 13.9238 12.9166 14.2224 12.9166 14.5835V16.2502H11.2499C10.8888 16.2502 10.5902 16.3682 10.3541 16.6043C10.118 16.8404 9.99994 17.1391 9.99994 17.5002C9.99994 17.8613 10.118 18.1599 10.3541 18.396C10.5902 18.6321 10.8888 18.7502 11.2499 18.7502H12.9166Z" fill="#132374"/>
</g>
</svg>
