<svg width="48" height="48" viewBox="0 0 48 48" fill="none" xmlns="http://www.w3.org/2000/svg">
<mask id="mask0_69_965" style="mask-type:alpha" maskUnits="userSpaceOnUse" x="0" y="0" width="48" height="48">
<rect width="48" height="48" fill="#D9D9D9"/>
</mask>
<g mask="url(#mask0_69_965)">
<path d="M9.10003 38C7.40003 38 6.08336 37.4083 5.15003 36.225C4.2167 35.0417 3.8667 33.6 4.10003 31.9L6.20003 16.9C6.50003 14.9 7.3917 13.25 8.87503 11.95C10.3584 10.65 12.1 10 14.1 10H33.9C35.9 10 37.6417 10.65 39.125 11.95C40.6084 13.25 41.5 14.9 41.8 16.9L43.9 31.9C44.1334 33.6 43.7834 35.0417 42.85 36.225C41.9167 37.4083 40.6 38 38.9 38C38.2 38 37.55 37.875 36.95 37.625C36.35 37.375 35.8 37 35.3 36.5L30.8 32H17.2L12.7 36.5C12.2 37 11.65 37.375 11.05 37.625C10.45 37.875 9.80003 38 9.10003 38ZM34 26C34.5667 26 35.0417 25.8083 35.425 25.425C35.8084 25.0417 36 24.5667 36 24C36 23.4333 35.8084 22.9583 35.425 22.575C35.0417 22.1917 34.5667 22 34 22C33.4334 22 32.9584 22.1917 32.575 22.575C32.1917 22.9583 32 23.4333 32 24C32 24.5667 32.1917 25.0417 32.575 25.425C32.9584 25.8083 33.4334 26 34 26ZM30 20C30.5667 20 31.0417 19.8083 31.425 19.425C31.8084 19.0417 32 18.5667 32 18C32 17.4333 31.8084 16.9583 31.425 16.575C31.0417 16.1917 30.5667 16 30 16C29.4334 16 28.9584 16.1917 28.575 16.575C28.1917 16.9583 28 17.4333 28 18C28 18.5667 28.1917 19.0417 28.575 19.425C28.9584 19.8083 29.4334 20 30 20ZM15.5 22.5V24.5C15.5 24.9333 15.6417 25.2917 15.925 25.575C16.2084 25.8583 16.5667 26 17 26C17.4334 26 17.7917 25.8583 18.075 25.575C18.3584 25.2917 18.5 24.9333 18.5 24.5V22.5H20.5C20.9334 22.5 21.2917 22.3583 21.575 22.075C21.8584 21.7917 22 21.4333 22 21C22 20.5667 21.8584 20.2083 21.575 19.925C21.2917 19.6417 20.9334 19.5 20.5 19.5H18.5V17.5C18.5 17.0667 18.3584 16.7083 18.075 16.425C17.7917 16.1417 17.4334 16 17 16C16.5667 16 16.2084 16.1417 15.925 16.425C15.6417 16.7083 15.5 17.0667 15.5 17.5V19.5H13.5C13.0667 19.5 12.7084 19.6417 12.425 19.925C12.1417 20.2083 12 20.5667 12 21C12 21.4333 12.1417 21.7917 12.425 22.075C12.7084 22.3583 13.0667 22.5 13.5 22.5H15.5Z" fill="white"/>
</g>
</svg>
