<svg width="48" height="48" viewBox="0 0 48 48" fill="none" xmlns="http://www.w3.org/2000/svg">
<mask id="mask0_69_1003" style="mask-type:alpha" maskUnits="userSpaceOnUse" x="0" y="0" width="48" height="48">
<rect width="48" height="48" fill="#D9D9D9"/>
</mask>
<g mask="url(#mask0_69_1003)">
<path d="M2.09998 40V36.4C2.09998 35.3 2.38331 34.2667 2.94998 33.3C3.51664 32.3333 4.29998 31.6 5.29998 31.1C6.99998 30.2333 8.91664 29.5 11.05 28.9C13.1833 28.3 15.5333 28 18.1 28C20.6666 28 23.0166 28.3 25.15 28.9C27.2833 29.5 29.2 30.2333 30.9 31.1C31.9 31.6 32.6833 32.3333 33.25 33.3C33.8166 34.2667 34.1 35.3 34.1 36.4V40C34.1 40.5667 33.9083 41.0417 33.525 41.425C33.1416 41.8083 32.6666 42 32.1 42H4.09998C3.53331 42 3.05831 41.8083 2.67498 41.425C2.29164 41.0417 2.09998 40.5667 2.09998 40ZM18.1 26C15.9 26 14.0166 25.2167 12.45 23.65C10.8833 22.0833 10.1 20.2 10.1 18H9.59998C9.29998 18 9.05831 17.9083 8.87498 17.725C8.69164 17.5417 8.59998 17.3 8.59998 17C8.59998 16.7 8.69164 16.4583 8.87498 16.275C9.05831 16.0917 9.29998 16 9.59998 16H10.1C10.1 14.5 10.4666 13.15 11.2 11.95C11.9333 10.75 12.9 9.8 14.1 9.1V11C14.1 11.3 14.1916 11.5417 14.375 11.725C14.5583 11.9083 14.8 12 15.1 12C15.4 12 15.6416 11.9083 15.825 11.725C16.0083 11.5417 16.1 11.3 16.1 11V8.3C16.4 8.2 16.7166 8.125 17.05 8.075C17.3833 8.025 17.7333 8 18.1 8C18.4666 8 18.8166 8.025 19.15 8.075C19.4833 8.125 19.8 8.2 20.1 8.3V11C20.1 11.3 20.1916 11.5417 20.375 11.725C20.5583 11.9083 20.8 12 21.1 12C21.4 12 21.6416 11.9083 21.825 11.725C22.0083 11.5417 22.1 11.3 22.1 11V9.1C23.3 9.8 24.2666 10.75 25 11.95C25.7333 13.15 26.1 14.5 26.1 16H26.6C26.9 16 27.1416 16.0917 27.325 16.275C27.5083 16.4583 27.6 16.7 27.6 17C27.6 17.3 27.5083 17.5417 27.325 17.725C27.1416 17.9083 26.9 18 26.6 18H26.1C26.1 20.2 25.3166 22.0833 23.75 23.65C22.1833 25.2167 20.3 26 18.1 26ZM18.1 22C19.2 22 20.1416 21.6083 20.925 20.825C21.7083 20.0417 22.1 19.1 22.1 18H14.1C14.1 19.1 14.4916 20.0417 15.275 20.825C16.0583 21.6083 17 22 18.1 22ZM32.95 29.2L32.8 28.5C32.6 28.4333 32.4083 28.3583 32.225 28.275C32.0416 28.1917 31.8666 28.0667 31.7 27.9L31.1 28.1C30.8666 28.1667 30.6416 28.1667 30.425 28.1C30.2083 28.0333 30.0333 27.8833 29.9 27.65L29.7 27.3C29.5666 27.1 29.525 26.8833 29.575 26.65C29.625 26.4167 29.7333 26.2167 29.9 26.05L30.4 25.6V24.4L29.9 23.95C29.7333 23.7833 29.625 23.5833 29.575 23.35C29.525 23.1167 29.5666 22.9 29.7 22.7L29.9 22.35C30.0333 22.1167 30.2083 21.9667 30.425 21.9C30.6416 21.8333 30.8666 21.8333 31.1 21.9L31.7 22.1C31.8333 21.9667 32 21.85 32.2 21.75C32.4 21.65 32.6 21.5667 32.8 21.5L32.95 20.8C33.0166 20.5667 33.1333 20.375 33.3 20.225C33.4666 20.075 33.6666 20 33.9 20H34.3C34.5333 20 34.7333 20.075 34.9 20.225C35.0666 20.375 35.1833 20.5667 35.25 20.8L35.4 21.5C35.6 21.5667 35.8 21.65 36 21.75C36.2 21.85 36.3666 21.9667 36.5 22.1L37.1 21.9C37.3333 21.8333 37.5583 21.8333 37.775 21.9C37.9916 21.9667 38.1666 22.1167 38.3 22.35L38.5 22.7C38.6333 22.9 38.675 23.1167 38.625 23.35C38.575 23.5833 38.4666 23.7833 38.3 23.95L37.8 24.4V25.6L38.3 26.05C38.4666 26.2167 38.575 26.4167 38.625 26.65C38.675 26.8833 38.6333 27.1 38.5 27.3L38.3 27.65C38.1666 27.8833 37.9916 28.0333 37.775 28.1C37.5583 28.1667 37.3333 28.1667 37.1 28.1L36.5 27.9C36.3333 28.0667 36.1583 28.1917 35.975 28.275C35.7916 28.3583 35.6 28.4333 35.4 28.5L35.25 29.2C35.1833 29.4333 35.0666 29.625 34.9 29.775C34.7333 29.925 34.5333 30 34.3 30H33.9C33.6666 30 33.4666 29.925 33.3 29.775C33.1333 29.625 33.0166 29.4333 32.95 29.2ZM34.1 26.5C34.5 26.5 34.85 26.35 35.15 26.05C35.45 25.75 35.6 25.4 35.6 25C35.6 24.6 35.45 24.25 35.15 23.95C34.85 23.65 34.5 23.5 34.1 23.5C33.7 23.5 33.35 23.65 33.05 23.95C32.75 24.25 32.6 24.6 32.6 25C32.6 25.4 32.75 25.75 33.05 26.05C33.35 26.35 33.7 26.5 34.1 26.5ZM37.5 18.9L37.3 17.9C37 17.8 36.725 17.675 36.475 17.525C36.225 17.375 36 17.2 35.8 17L34.75 17.35C34.45 17.45 34.15 17.4417 33.85 17.325C33.55 17.2083 33.3166 17.0167 33.15 16.75L32.85 16.25C32.6833 15.9833 32.625 15.6917 32.675 15.375C32.725 15.0583 32.8833 14.7833 33.15 14.55L34 13.8C33.9333 13.6333 33.9 13.5 33.9 13.4V12.6C33.9 12.5 33.9333 12.3667 34 12.2L33.15 11.45C32.8833 11.2167 32.725 10.9417 32.675 10.625C32.625 10.3083 32.6833 10.0167 32.85 9.75L33.15 9.25C33.3166 8.98333 33.55 8.79167 33.85 8.675C34.15 8.55833 34.45 8.55 34.75 8.65L35.8 9C36 8.8 36.225 8.625 36.475 8.475C36.725 8.325 37 8.2 37.3 8.1L37.5 7.1C37.5666 6.76667 37.725 6.5 37.975 6.3C38.225 6.1 38.5166 6 38.85 6H39.35C39.6833 6 39.975 6.1 40.225 6.3C40.475 6.5 40.6333 6.76667 40.7 7.1L40.9 8.1C41.2 8.2 41.475 8.325 41.725 8.475C41.975 8.625 42.2 8.8 42.4 9L43.45 8.65C43.75 8.55 44.05 8.55833 44.35 8.675C44.65 8.79167 44.8833 8.98333 45.05 9.25L45.35 9.75C45.5166 10.0167 45.575 10.3083 45.525 10.625C45.475 10.9417 45.3166 11.2167 45.05 11.45L44.2 12.2C44.2666 12.3667 44.3 12.5 44.3 12.6V13.4C44.3 13.5 44.2666 13.6333 44.2 13.8L45.05 14.55C45.3166 14.7833 45.475 15.0583 45.525 15.375C45.575 15.6917 45.5166 15.9833 45.35 16.25L45.05 16.75C44.8833 17.0167 44.65 17.2083 44.35 17.325C44.05 17.4417 43.75 17.45 43.45 17.35L42.4 17C42.2 17.2 41.975 17.375 41.725 17.525C41.475 17.675 41.2 17.8 40.9 17.9L40.7 18.9C40.6333 19.2333 40.475 19.5 40.225 19.7C39.975 19.9 39.6833 20 39.35 20H38.85C38.5166 20 38.225 19.9 37.975 19.7C37.725 19.5 37.5666 19.2333 37.5 18.9ZM39.1 15.5C39.8 15.5 40.3916 15.2583 40.875 14.775C41.3583 14.2917 41.6 13.7 41.6 13C41.6 12.3 41.3583 11.7083 40.875 11.225C40.3916 10.7417 39.8 10.5 39.1 10.5C38.4 10.5 37.8083 10.7417 37.325 11.225C36.8416 11.7083 36.6 12.3 36.6 13C36.6 13.7 36.8416 14.2917 37.325 14.775C37.8083 15.2583 38.4 15.5 39.1 15.5Z" fill="white"/>
</g>
</svg>
